<svg width="90" height="90" viewBox="0 0 90 90" fill="none" xmlns="http://www.w3.org/2000/svg">
    <path
        d="M45.4918 89.586C70.0639 89.586 89.9836 85.8731 89.9836 81.293C89.9836 76.7129 70.0639 73 45.4918 73C20.9196 73 1 76.7129 1 81.293C1 85.8731 20.9196 89.586 45.4918 89.586Z"
        fill="#F5F5F7" fill-opacity="0.8"/>
    <path
        d="M21.3022 10.8796V79.6449C21.3022 81.2783 19.9784 82.6021 18.345 82.6021H12.6499C11.0166 82.6021 9.69099 81.2783 9.69099 79.6449V10.8796C9.69099 9.24627 11.0166 7.92071 12.6499 7.92071H18.345C19.9784 7.92071 21.3022 9.24627 21.3022 10.8796Z"
        fill="#DCE0E6"/>
    <path
        d="M17.2443 82.6014H12.6501C11.0167 82.6014 9.69118 81.2776 9.69118 79.6442V10.8789C9.69118 9.24557 11.0167 7.92 12.6501 7.92H17.2441C15.6108 7.92 14.287 9.24557 14.287 10.8789V79.6442C14.2872 81.2777 15.611 82.6014 17.2443 82.6014Z"
        fill="#DCE0E6"/>
    <path
        d="M80.3083 10.8796V79.6449C80.3083 81.2783 78.9845 82.6021 77.3511 82.6021H71.656C70.0226 82.6021 68.6971 81.2783 68.6971 79.6449V10.8796C68.6971 9.24627 70.0226 7.92071 71.656 7.92071H77.3511C78.9847 7.92071 80.3083 9.24627 80.3083 10.8796Z"
        fill="#DCE0E6"/>
    <path
        d="M76.2504 82.6014H71.6563C70.023 82.6014 68.6974 81.2776 68.6974 79.6442V10.8789C68.6974 9.24557 70.023 7.92 71.6563 7.92H76.2504C74.617 7.92 73.2932 9.24557 73.2932 10.8789V79.6442C73.2932 81.2777 74.617 82.6014 76.2504 82.6014Z"
        fill="#DCE0E6"/>
    <path
        d="M89.5256 24.5456V43.0109C89.5256 48.1013 85.3986 52.2283 80.3083 52.2283H73.7276L69.5739 48.3762L61.5822 52.2283H40.2483L37.2176 48.4912L28.1011 52.2283H9.6917C8.75549 52.2283 7.8518 52.0889 7.00066 51.8281C5.1119 51.2531 6.99346 44.9935 5.834 43.4523C4.67455 41.911 0.474258 45.0881 0.474258 43.011V24.5456C0.474258 19.4553 4.60125 15.3283 9.69152 15.3283H16.2722L19.1486 19.7116L28.4177 15.3283H49.7515L53.1621 18.5629L61.8987 15.3283H80.308C81.2442 15.3283 82.1479 15.4677 82.999 15.7286C85.1625 16.387 83.5487 20.3534 84.7141 22.2388C85.5837 23.6454 89.5256 22.7707 89.5256 24.5456Z"
        fill="#AEB8C2"/>
    <path
        d="M28.4179 15.3283L9.57217 47.4458L7.00066 51.8281C3.22313 50.6783 0.474258 47.1651 0.474258 43.011V42.2506L8.43662 28.6817L16.2055 15.4424L16.2724 15.3283H28.4179Z"
        fill="#F5F5F7"/>
    <path d="M61.8991 15.3283L40.2483 52.2283H28.1009L49.7517 15.3283H61.8991Z" fill="#F5F5F7"/>
    <path
        d="M89.5256 24.5456V25.306L73.7276 52.2281H61.5822L82.9994 15.7284C86.7767 16.8783 89.5256 20.3915 89.5256 24.5456Z"
        fill="#F5F5F7"/>
    <path d="M17.6523 15.3283C17.1598 15.3283 16.6762 15.3663 16.2054 15.4424L16.2724 15.3283H17.6523Z" fill="#DDDAEC"/>
    <path
        d="M40.3529 7.43977L27.9624 28.9007C25.897 32.4782 28.4788 36.9499 32.6095 36.9499H57.3905C61.5213 36.9499 64.103 32.4782 62.0376 28.9007L49.6471 7.43977C47.5817 3.86227 42.4183 3.86227 40.3529 7.43977Z"
        fill="#DCE0E6"/>
    <path
        d="M45 25.9931C43.4999 25.9931 42.2837 24.7771 42.2837 23.2768V14.663C42.2837 13.1629 43.4997 11.9466 45 11.9466C46.5001 11.9466 47.7163 13.1627 47.7163 14.663V23.277C47.7163 24.7771 46.5001 25.9931 45 25.9931Z"
        fill="white"/>
    <path
        d="M45 33.2367C43.4999 33.2367 42.2837 32.0207 42.2837 30.5204C42.2837 29.0203 43.4997 27.804 45 27.804C46.5001 27.804 47.7163 29.0201 47.7163 30.5204C47.7163 32.0207 46.5001 33.2367 45 33.2367Z"
        fill="white"/>
</svg>
